<svg viewBox="0 0 267 212" xmlns="http://www.w3.org/2000/svg" fill-rule="evenodd" clip-rule="evenodd" stroke-linejoin="round" stroke-miterlimit="1.414"><path d="M16.408 211.16C5.46 179.879-.014 148.872-.014 118.1c0-35.464 9.384-64.008 28.152-85.63C46.907 10.846 74.278.015 110.25.015v49.267c-27.644 0-41.447 17.712-41.447 53.177v11.73h50.049v96.97H16.408zm147.8 0c-10.44-31.79-15.64-62.835-15.64-93.06 0-35.464 9.267-64.008 27.762-85.63C194.825 10.846 222.078.015 258.05.015v49.267c-27.096 0-40.664 17.712-40.664 53.177v11.73h49.267v96.97H164.209z" fill="#ffffff" fill-rule="nonzero"/></svg>